<svg id="Capa_1" data-name="Capa 1" xmlns="http://www.w3.org/2000/svg" width="36" height="36" viewBox="0 0 36 36"><path d="M22.7,15.3c.2.1.5,0,.5-.2a1,1,0,0,1,1.3-.6,1.8,1.8,0,0,0,2.2-1.1v-.3c-.1-.1-.1-.2-.2-.2a.4.4,0,0,0-.5.2,1.1,1.1,0,0,1-1.3.7h-.5a1.7,1.7,0,0,0-1.7,1.2C22.4,15,22.6,15.3,22.7,15.3Z" fill="#5b5a5a"/><path d="M23.9,12.1a.4.4,0,0,0,.5-.2,1,1,0,0,1,.5-.6,1.1,1.1,0,0,1,.8,0,1.8,1.8,0,0,0,2.2-1.1V9.9l-.2-.2h-.3l-.2.2a1,1,0,0,1-.5.6H24.6a1.8,1.8,0,0,0-.9,1v.3l.2.2Z" fill="#5b5a5a"/><path d="M25.1,8.6a.4.4,0,0,0,.5-.2c0-.2.2-.3.4-.4h.6a1.4,1.4,0,0,0,1.1,0,1.4,1.4,0,0,0,.8-.9V6.7l-.2-.2H28c-.1.1-.2.1-.2.2a1,1,0,0,1-.4.5h-.6a1.5,1.5,0,0,0-1.9,1C24.8,8.4,24.9,8.6,25.1,8.6Z" fill="#5b5a5a"/><path d="M28.7,16.2h-.1A39.9,39.9,0,0,0,30.4,5.6a3.8,3.8,0,0,0-1.5-3,2.1,2.1,0,0,0-2.2,0c-1.6.8-2.8,3.3-3.8,5.4l-.3.6V8.3a3,3,0,0,0-1.7-2.2h0a2.6,2.6,0,0,0-2-1.9h-.1V3.8a1.6,1.6,0,0,0-1.5-1.2,1.4,1.4,0,0,0-1.1.2h-.2a1.4,1.4,0,0,0-.9-.3A2.1,2.1,0,0,0,13.1,4h0a2.3,2.3,0,0,0-1.8,2.3h-.1a2.7,2.7,0,0,0-2,2.6,4.4,4.4,0,0,0,.2,1h0a1.9,1.9,0,0,0-.5,1.3,2.4,2.4,0,0,0,.2.8l.3.7-.5-.6a3.2,3.2,0,0,0-2.1-1,.5.5,0,0,0-.5.4.5.5,0,0,0,.5.5h0a2.2,2.2,0,0,1,1.5.8H8.2a3.3,3.3,0,0,0-2.3,1.5,2.6,2.6,0,0,0-.2,2h0a.6.6,0,0,0-.1.4l.9,13.5a3.2,3.2,0,0,0,3.1,2.9H25.2a3.2,3.2,0,0,0,3.1-2.9l.9-13.9c.1-.2,0-.4-.2-.6ZM23,9.8l.7-1.5c.9-1.8,2-4.2,3.4-4.9a1.2,1.2,0,0,1,1.4,0,2.4,2.4,0,0,1,1,2.2,31.9,31.9,0,0,1-1.8,10.3,2.5,2.5,0,0,1-.2.7h0l-1,.4h0a1.8,1.8,0,0,1-2,0l-.3-.2a2.8,2.8,0,0,0-1.5-.4h0a2.3,2.3,0,0,0-1.4.4l-.4.2a1.1,1.1,0,0,1-.8.3h-.2v-.3c.2-.5.3-1,.5-1.6s.2-.3.2-.5l.5-1.2v-.2c.1-.1.1-.2.2-.4A35.4,35.4,0,0,1,23,9.8Zm-7.1,1.3h0l.2-.3h.1a1.1,1.1,0,0,0,.1-.8h0l2.5-.6v.4l.5.5h.3c0,.1.1.1.2.2h.7V11h.2a.5.5,0,0,1,.2.4h0l-.6,1.6-.2.3h0a6.5,6.5,0,0,0-1.9.9,2.9,2.9,0,0,1-2.1.8h-.8l-.4-1.6A2.7,2.7,0,0,1,15.9,11.1Zm-.5-2.3c-.1-.2.1-.4.3-.5l3-.6a.4.4,0,0,1,.5.2.4.4,0,0,1-.1.3l-.2.2L15.8,9h-.1Zm.5,7.2h.4a4.1,4.1,0,0,0,2.6-1l.8-.4.3-.2v.3c-.1.2-.1.3-.2.4v.2c-.1,0-.1.1-.1.2s-.3,1-.5,1.5h0l-.5-.3a2.3,2.3,0,0,0-1.4-.4h-.3l-.9.3h-.1l-.2-.8Zm-5.7-5.5.3-.2-.2-.3a2.9,2.9,0,0,1-.2-.9,1.7,1.7,0,0,1,1.7-1.8h.5V6.4a1.5,1.5,0,0,1,1.4-1.5H14V4.4a1,1,0,0,1,1-1,.9.9,0,0,1,.7.3L16,4l.3-.3a1.1,1.1,0,0,1,.8-.3,1,1,0,0,1,.7.7.4.4,0,0,1,.1.3v.5h.5a1.6,1.6,0,0,1,1.6,1.5v.3h.2A2.1,2.1,0,0,1,21.7,9a2.7,2.7,0,0,1-.3,1.2h-.2l-1.1-.7h-.3c0-.1-.1-.1-.1-.2a.6.6,0,0,1,.1-.4,1,1,0,0,0,.2-.9V7.6a1.8,1.8,0,0,0-.5-.7,1.1,1.1,0,0,0-.8-.1l-3.4.7c-.3.1-.5.2-.6.5a1.1,1.1,0,0,0-.2.8v.3a1.1,1.1,0,0,0,.6.7l.2.3c.1.1.1.1,0,.2v.2h-.1l-.2.2h0l-.2.2h0c-.1,0-.1.1-.2.2h0v.2h-.1c0,.2-.1.3-.1.4h0v.3h0v.3L14,13l-.3-.4h-.1l-.3-.2h0L13,12h-.4c0-.1,0-.1-.1-.1H10.8l-.7.4H9.9v-.2a.6.6,0,0,1-.1-.4A1.3,1.3,0,0,1,10.2,10.5ZM6.6,15.2a3.1,3.1,0,0,1,1.9-1.1,4.7,4.7,0,0,0,1.2-.7l.4-.4a3.3,3.3,0,0,1,1.3-.7h1.2c0,.1,0,.1.1.1H13a.1.1,0,0,1,.1.1v.2h.2l.2.3h0l.3.5a4.3,4.3,0,0,1,.4,2.8h-.2c-.3-.1-.5-.1-.7-.3l-.4-.2a2.3,2.3,0,0,0-1.4-.4,2.8,2.8,0,0,0-1.5.4H9.9a2,2,0,0,1-1.1.3A2.7,2.7,0,0,1,7.6,17l-.7-.4H6.5A2.3,2.3,0,0,1,6.6,15.2ZM27.4,30.8a2.2,2.2,0,0,1-2.2,2H9.6a2.2,2.2,0,0,1-2.2-2L6.5,17.3l.7.5a2.7,2.7,0,0,0,1.6.4h0a2.9,2.9,0,0,0,1.6-.4l.2-.2,1-.2.9.2.4.3a2.9,2.9,0,0,0,1.6.4h.1l1.1-.4h.1l.4-.3.9-.2,1,.2.4.3,1.3.4h.9l.7-.3.4-.3.9-.2,1,.2.4.3a3.3,3.3,0,0,0,1.4.4h0a3.3,3.3,0,0,0,1.4-.4l1.1-.5h.1l.2-.2Z" fill="#5b5a5a"/></svg>