<svg id="Capa_1" data-name="Capa 1" xmlns="http://www.w3.org/2000/svg" width="36" height="36" viewBox="0 0 36 36"><path d="M32,19.4l-1.2-1.9h-.1l-.3-.3h0a5.2,5.2,0,0,0-.7-4,3.6,3.6,0,0,0-2.4-1.8l-1.8-.3h0a6.7,6.7,0,0,0-6.6-4.6H16.8a6.4,6.4,0,0,0-6.4,4.5h-.1l-1.9.3A3.8,3.8,0,0,0,6,13a5.2,5.2,0,0,0-.6,4H5.3l-.2.3v.2H5a9.4,9.4,0,0,0-1.2,1.8,11.4,11.4,0,0,0-1.9,5.4,4.3,4.3,0,0,1-.1.5,1.9,1.9,0,0,0,1.5,2.1,5.2,5.2,0,0,0,2.5-.5l1.4-.8,1.4-.9h.1a4.1,4.1,0,0,0,3.2.7h.2l.3,2.3a.9.9,0,0,0,.7.6h10a.7.7,0,0,0,.7-.6l.3-2.3h.2a4.2,4.2,0,0,0,2.8-.8h.1a10.1,10.1,0,0,0,1.3.9l1.4.8a5.6,5.6,0,0,0,2.6.5c.9-.2,1.4-.9,1.4-2.1v-.5A12.6,12.6,0,0,0,32,19.4ZM7.7,24.6l-1,.7L5.4,26a4.5,4.5,0,0,1-1.7.4H3.4c-.4,0-.6-.4-.6-1.1a.6.6,0,0,1,.1-.4,12.4,12.4,0,0,1,1.7-5l.9-1.4.2-.3L7,23a2.9,2.9,0,0,0,.8,1.4H7.7Zm4.1.3h-.7a3.4,3.4,0,0,1-3.2-2.3h0L6.4,16.9a3.9,3.9,0,0,1,.4-3.3,2.7,2.7,0,0,1,1.8-1.4l1.5-.2h0a12.1,12.1,0,0,0,.1,1.9l1.7,10.9Zm10.9,3H13.6a.2.2,0,0,1-.2-.2L11.2,13.9a5.5,5.5,0,0,1,1.2-4.7,5.7,5.7,0,0,1,4.4-1.9h2.1a6.1,6.1,0,0,1,4.6,1.9,6.4,6.4,0,0,1,1.3,4.7L22.9,27.7A.2.2,0,0,1,22.7,27.9Zm2-2.9h-.4v-.2l1.5-10.7a13.4,13.4,0,0,0,0-2h0l1.4.2a2.3,2.3,0,0,1,1.7,1.4,4.3,4.3,0,0,1,.5,3.3l-1.6,5.8A3.2,3.2,0,0,1,24.7,25Zm7.6,1.4h-.2a4.5,4.5,0,0,1-1.7-.4L29,25.2l-1-.6h0a6.4,6.4,0,0,0,.8-1.4l1.3-4.8v.3l.9,1.4a11.3,11.3,0,0,1,1.8,5v.4C32.9,26,32.7,26.4,32.3,26.4Z" fill="#5b5a5a"/></svg>