<svg id="Capa_1" data-name="Capa 1" xmlns="http://www.w3.org/2000/svg" width="36" height="36" viewBox="0 0 36 36"><path d="M23.8,9.6h-.1V7.9a.4.4,0,0,0-.4-.4h-.1V3.3a.4.4,0,0,0-.4-.4H17.7a1,1,0,0,0-1,1v.9a.4.4,0,0,0,.4.4h2.2V7.5h-.1a.4.4,0,0,0-.4.4V9.6h-.1a3.4,3.4,0,0,0-3,3.4v5.6H14.6a.8.8,0,0,1-.7-.8v-.5H14a.4.4,0,0,0,.4-.4V14.6a.4.4,0,0,0-.4-.4H9.8c-.2,0-.3.2-.3.4v2.1c0,.2.1.4.3.4H10v.5a.9.9,0,0,1-.3.6l-.5.2h0a2,2,0,0,0-1.6.7,2,2,0,0,0-.7,1.6V30.8a2.3,2.3,0,0,0,2.3,2.3h5.4a1.6,1.6,0,0,0,1-.2H26.1a.7.7,0,0,0,.7-.7V13A3.4,3.4,0,0,0,23.8,9.6ZM20.1,3.7h2.3V7.5H20.1Zm-.6,4.6h3.4V9.6H19.5Zm-2-3.9V3.9a.2.2,0,0,1,.2-.2h1.6v.7ZM16.4,17.6h5.5v7.5H17V20.7a2.4,2.4,0,0,0-.5-1.4h-.1ZM10.2,15h3.4v1.3H10.2ZM7.7,22.3H12v6.4H7.7Zm8.5,8.5a1.5,1.5,0,0,1-1.6,1.5H9.2a1.4,1.4,0,0,1-1.5-1.5V29.5h4.7a.4.4,0,0,0,.4-.4V21.9a.4.4,0,0,0-.4-.4H7.7v-.8a1.5,1.5,0,0,1,1.5-1.5,1.6,1.6,0,0,0,1.6-1.6v-.5h2.3v.5a1.6,1.6,0,0,0,1.5,1.6,1.6,1.6,0,0,1,1.6,1.5ZM26,32.3H16.4v-.2a1.9,1.9,0,0,0,.5-1.3V25.9h5.3a.4.4,0,0,0,.4-.4V17.2a.4.4,0,0,0-.4-.4H16.4V13a2.7,2.7,0,0,1,2.7-2.6h4.3A2.6,2.6,0,0,1,26,13Z" fill="#5b5a5a"/></svg>