<svg id="Capa_1" data-name="Capa 1" xmlns="http://www.w3.org/2000/svg" width="36" height="36" viewBox="0 0 36 36"><path d="M25.7,31l-1.4-6h-.1a.8.8,0,0,0,.3-.7V22.8a2.3,2.3,0,0,0-2.3-2.3H18.8V4.8a1.1,1.1,0,0,0-1.1-1.1H15.3a1,1,0,0,0-1,1.1V20.5H11.4a2.3,2.3,0,0,0-2.2,2.3V24a1.2,1.2,0,0,0,.2.7h0L8,31a1,1,0,0,0,.2.9,1.2,1.2,0,0,0,.8.4H24.6a1.3,1.3,0,0,0,.9-.4,1,1,0,0,0,.2-.9ZM15.2,4.6h2.7V20.5H15.2ZM10.1,22.8a1.3,1.3,0,0,1,1.3-1.3H22.2a1.3,1.3,0,0,1,1.4,1.3v1.4H10.1ZM8.8,31.4v-.2l1.4-6.1H23.4l1.4,6.2Z" fill="#5b5a5a"/></svg>